<svg xmlns="http://www.w3.org/2000/svg" viewBox="0 0 64 64" width="512" height="512">
  <defs>
    <linearGradient id="g" x1="0" y1="0" x2="1" y2="1"><stop offset="0" stop-color="#ffe9a8"/><stop offset=".5" stop-color="#f0b44c"/><stop offset="1" stop-color="#b8741a"/></linearGradient>
    <linearGradient id="b" x1="0" y1="0" x2="0" y2="1"><stop offset="0" stop-color="#1d2335"/><stop offset="1" stop-color="#090b11"/></linearGradient>
    <radialGradient id="glow" cx=".5" cy=".42" r=".6"><stop offset="0" stop-color="#f0b44c" stop-opacity=".30"/><stop offset="1" stop-color="#f0b44c" stop-opacity="0"/></radialGradient>
  </defs>
  <path d="M32 3 55 16.5v31L32 61 9 47.5v-31Z" fill="url(#b)" stroke="url(#g)" stroke-width="3" stroke-linejoin="round"/>
  <path d="M32 3 55 16.5v31L32 61 9 47.5v-31Z" fill="url(#glow)"/>
  <circle cx="32" cy="32" r="15.5" fill="none" stroke="url(#g)" stroke-width="3.2" stroke-linecap="round" stroke-dasharray="20.2 4.4" transform="rotate(-86 32 32)"/>
  <g stroke="url(#g)" stroke-width="2.6" stroke-linecap="round"><path d="M32 10.5v5M32 53.5v-5M10.5 32h5M53.5 32h-5"/></g>
  <circle cx="32" cy="29.6" r="4.6" fill="url(#g)"/>
  <path d="M29.6 31.5h4.8l2 10.3H27.6Z" fill="url(#g)"/>
</svg>
